# xmcd
#
# Track frame offsets:
#	150
#	8278
#	27444
#	47373
#	62847
#	82665
#	102969
#	126022
#	137509
#	154467
#	175366
#
# Disc length: 2627 seconds
#
# Revision: 2
# Processed by: cddbd v1.5.2PL0 Copyright (c) Steve Scherf et al.
# Submitted via: audiograbber 1.83.01
#
DISCID=7d0a410b
DTITLE=World To Ashes - In Contemplation of Death
DYEAR=2009
DGENRE=Death Metal
TTITLE0=Into The Abyss
TTITLE1=Beyond The Veil
TTITLE2=Pale Cold Water
TTITLE3=Tie Killer Hypocrites
TTITLE4=The Lucent Gate
TTITLE5=Vanity
TTITLE6=Path Of Uncertainty
TTITLE7=Yesterday Is Burning Black
TTITLE8=Riven
TTITLE9=A Soul Divided
TTITLE10=Facing Death
EXTD=
EXTT0=
EXTT1=
EXTT2=
EXTT3=
EXTT4=
EXTT5=
EXTT6=
EXTT7=
EXTT8=
EXTT9=
EXTT10=
PLAYORDER=
